<svg width="202" height="203" xmlns="http://www.w3.org/2000/svg" xmlns:xlink="http://www.w3.org/1999/xlink" xml:space="preserve" overflow="hidden"><g transform="translate(-1865 -1768)"><path d="M1865.5 1802C1865.5 1783.5 1880.5 1768.5 1899 1768.5L2033 1768.5C2051.5 1768.5 2066.5 1783.5 2066.5 1802L2066.5 1937C2066.5 1955.5 2051.5 1970.5 2033 1970.5L1899 1970.5C1880.5 1970.5 1865.5 1955.5 1865.5 1937Z" stroke="#2196F3" stroke-width="0.620735" stroke-miterlimit="8" fill="#2196F3" fill-rule="evenodd"/><g><g><g><path d="M1968.29 1848.38 1963.71 1848.38C1961.19 1848.38 1959.12 1846.31 1959.12 1843.79L1959.12 1834.62C1959.12 1832.1 1961.19 1830.04 1963.71 1830.04L1968.29 1830.04C1970.81 1830.04 1972.87 1832.1 1972.87 1834.62L1972.87 1843.79C1972.87 1846.31 1970.81 1848.38 1968.29 1848.38Z" stroke="#FFFFFF" stroke-width="0.620735" fill="#FFFFFF"/><path d="M2002.67 1871.29 1975.17 1871.29 1975.17 1866.71 2002.67 1866.71 2002.67 1871.29ZM2002.67 1885.04 1975.17 1885.04 1975.17 1880.46 2002.67 1880.46 2002.67 1885.04ZM2002.67 1898.79 1975.17 1898.79 1975.17 1894.21 2002.67 1894.21 2002.67 1898.79ZM1966 1898.79 1929.33 1898.79 1929.33 1889.62C1929.33 1888.25 1930.02 1886.88 1931.17 1885.96 1933.69 1884.12 1936.9 1882.52 1940.1 1881.6 1942.62 1880.92 1945.15 1880.46 1947.67 1880.46 1950.42 1880.46 1952.94 1880.92 1955.23 1881.6 1958.44 1882.52 1961.65 1883.9 1964.17 1885.96 1965.31 1886.88 1966 1888.25 1966 1889.62L1966 1898.79ZM1947.67 1859.83C1952.71 1859.83 1956.83 1863.96 1956.83 1869 1956.83 1874.04 1952.71 1878.17 1947.67 1878.17 1942.62 1878.17 1938.5 1874.04 1938.5 1869 1938.5 1863.96 1942.62 1859.83 1947.67 1859.83ZM2007.25 1843.79 1977.46 1843.79C1977.46 1848.83 1973.33 1852.96 1968.29 1852.96L1963.71 1852.96C1958.67 1852.96 1954.54 1848.83 1954.54 1843.79L1924.75 1843.79C1922.23 1843.79 1920.17 1845.85 1920.17 1848.38L1920.17 1903.38C1920.17 1905.9 1922.23 1907.96 1924.75 1907.96L2007.25 1907.96C2009.77 1907.96 2011.83 1905.9 2011.83 1903.38L2011.83 1848.38C2011.83 1845.85 2009.77 1843.79 2007.25 1843.79Z" stroke="#FFFFFF" stroke-width="0.620735" fill="#FFFFFF"/></g></g></g></g></svg>