<svg width="96" height="96" xmlns="http://www.w3.org/2000/svg" xmlns:xlink="http://www.w3.org/1999/xlink" xml:space="preserve" overflow="hidden"><g transform="translate(-971 -504)"><path d="M1019 514C998 514 981 531 981 552 981 573 998 590 1019 590 1040 590 1057 573 1057 552 1057 531 1040 514 1019 514ZM1017 524C1019.8 524 1022 526.2 1022 529 1022 531.8 1019.8 534 1017 534 1014.2 534 1012 531.8 1012 529 1012 526.2 1014.2 524 1017 524ZM1029 580 1009 580 1009 574 1016 574 1016 544 1010 544 1010 538 1022 538 1022 544 1022 574 1029 574 1029 580Z" stroke="#FFFFFF" fill="#FFFFFF"/></g></svg>