<svg width="96" height="96" xmlns="http://www.w3.org/2000/svg" xmlns:xlink="http://www.w3.org/1999/xlink" xml:space="preserve" overflow="hidden"><g transform="translate(-644 -404)"><path d="M718.005 485.999 718.005 411.999 666.005 411.999 666.005 485.999 654.005 485.999 654.005 491.999 666.005 491.999 668.004 491.999 672.005 491.999 672.005 417.999 712.005 417.999 712.005 491.999 716.005 491.999 718.005 491.999 730.005 491.999 730.005 485.999 718.005 485.999Z" stroke="#00B050" fill="#00B050"/><path d="M675.005 492 704.005 488 704.005 425 675.005 421ZM693 456 697.45 456C697.653 454.916 698.552 454.099 699.65 454 700.951 454 702 455.343 702 457 702 458.657 700.949 460 699.652 460 698.554 459.901 697.655 459.084 697.452 458L693 458Z" stroke="#00B050" fill="#00B050"/></g></svg>