<svg width="96" height="96" xmlns="http://www.w3.org/2000/svg" xmlns:xlink="http://www.w3.org/1999/xlink" xml:space="preserve" overflow="hidden"><g transform="translate(-503 -305)"><path d="M585 388.6 565 369.6 585 350.6 585 388.6ZM520.2 391 540 372.3 541.4 371C546.8 365.9 555.3 365.9 560.7 371L562.1 372.3 581.8 391 520.2 391ZM517 350.5 537 369.5 517 388.5 517 350.5ZM531 325 571 325 571 358.3 562 366.9C555.5 361.9 546.5 361.9 540 366.9L531 358.3 531 325ZM577 327.7 577 319 563 319 551 309 539 319 525 319 525 327.8 511 341.1 511 397 591 397 591 341.1 577 327.7Z" stroke="#2196F3" stroke-width="0.541627" fill="#2196F3"/><path d="M551 347.3C549.2 347.3 547.8 345.8 547.8 344.1 547.8 342.3 549.3 340.9 551 340.9 552.8 340.9 554.2 342.3 554.2 344.1 554.2 345.9 552.8 347.3 551 347.3ZM551 357C553.3 357 555.5 356.4 557.5 355.4 558.3 354.9 558.6 353.9 558.2 353.1 557.7 352.3 556.7 352 555.9 352.4 554.4 353.2 552.7 353.6 551 353.6 545.7 353.6 541.3 349.2 541.4 343.9 541.4 338.6 545.8 334.2 551.1 334.2 556.4 334.2 560.8 338.5 560.8 343.9L560.8 347.1C559 347.1 557.6 345.7 557.6 343.9 557.6 340.7 555.4 338 552.3 337.4 549.2 336.8 546.1 338.5 545 341.4 543.9 344.3 545 347.7 547.7 349.3 550.4 350.9 553.9 350.4 556 348 557.2 349.4 559 350.2 560.9 350.2 562.7 350.2 564.1 348.8 564.1 347L564.1 343.8C564.1 336.6 558.3 330.8 551.1 330.8 543.9 330.8 538.1 336.6 538.1 343.8 538 351.1 543.8 356.9 551 357Z" stroke="#2196F3" stroke-width="0.541627" fill="#2196F3"/></g></svg>