<svg width="96" height="96" xmlns="http://www.w3.org/2000/svg" xmlns:xlink="http://www.w3.org/1999/xlink" xml:space="preserve" overflow="hidden"><g transform="translate(-458 -585)"><path d="M540 668.6 520 649.6 540 630.6 540 668.6ZM475.2 671 495 652.3 496.4 651C501.8 645.9 510.3 645.9 515.7 651L517.1 652.3 536.8 671 475.2 671ZM472 630.5 492 649.5 472 668.5 472 630.5ZM486 605 526 605 526 638.3 517 646.9C510.5 641.9 501.5 641.9 495 646.9L486 638.3 486 605ZM532 607.7 532 599 518 599 506 589 494 599 480 599 480 607.8 466 621.1 466 677 546 677 546 621.1 532 607.7Z" stroke="#333333" fill="#333333"/><path d="M506 627.3C504.2 627.3 502.8 625.8 502.8 624.1 502.8 622.3 504.3 620.9 506 620.9 507.8 620.9 509.2 622.3 509.2 624.1 509.2 625.9 507.8 627.3 506 627.3ZM506 637C508.3 637 510.5 636.4 512.5 635.4 513.3 634.9 513.6 633.9 513.2 633.1 512.7 632.3 511.7 632 510.9 632.4 509.4 633.2 507.7 633.6 506 633.6 500.7 633.6 496.3 629.2 496.4 623.9 496.4 618.6 500.8 614.2 506.1 614.2 511.4 614.2 515.8 618.5 515.8 623.9L515.8 627.1C514 627.1 512.6 625.7 512.6 623.9 512.6 620.7 510.4 618 507.3 617.4 504.2 616.8 501.1 618.5 500 621.4 498.9 624.3 500 627.7 502.7 629.3 505.4 630.9 508.9 630.4 511 628 512.2 629.4 514 630.2 515.9 630.2 517.7 630.2 519.1 628.8 519.1 627L519.1 623.8C519.1 616.6 513.3 610.8 506.1 610.8 498.9 610.8 493.1 616.6 493.1 623.8 493 631.1 498.8 636.9 506 637Z" stroke="#333333" fill="#333333"/></g></svg>