<svg width="96" height="96" xmlns="http://www.w3.org/2000/svg" xmlns:xlink="http://www.w3.org/1999/xlink" xml:space="preserve" overflow="hidden"><g transform="translate(-1160 -500)"><path d="M1232 571.6 1218.31 549.78C1218.07 549.38 1217.63 549.137 1217.16 549.14 1216.69 549.14 1216.25 549.381 1216 549.78L1212 556.2 1220.58 570.08C1221.31 571.178 1221.46 572.557 1221 573.79L1230.7 573.79C1231.49 573.83 1232.17 573.218 1232.21 572.424 1232.22 572.134 1232.15 571.847 1232 571.6Z" stroke="#FFFFFF" fill="#FFFFFF"/><path d="M1217.1 571.73 1195.35 536.34C1195.07 535.979 1194.64 535.775 1194.18 535.79L1194 535.79 1193.82 535.79C1193.36 535.775 1192.93 535.979 1192.65 536.34L1170.9 571.73C1170.59 572.161 1170.55 572.728 1170.79 573.2 1171.03 573.628 1171.51 573.862 1172 573.79L1216 573.79C1216.49 573.862 1216.97 573.628 1217.21 573.2 1217.45 572.728 1217.41 572.161 1217.1 571.73ZM1197.64 552.92 1194.18 556 1190.72 552.92 1185 556.38 1194 541.79 1202.76 556Z" stroke="#FFFFFF" fill="#FFFFFF"/><path d="M1184 538C1184 539.657 1182.66 541 1181 541 1179.34 541 1178 539.657 1178 538 1178 536.343 1179.34 535 1181 535 1182.66 535 1184 536.343 1184 538Z" stroke="#FFFFFF" fill="#FFFFFF"/><path d="M1253 513 1173 513 1173 524 1162 524 1162 585.79 1242 585.79 1242 574.79 1253 574.79ZM1236 580 1168 580 1168 529.79 1236 529.79ZM1247 569 1242 569 1242 524 1179 524 1179 519 1247 519Z" stroke="#FFFFFF" fill="#FFFFFF"/></g></svg>