<svg width="96" height="96" xmlns="http://www.w3.org/2000/svg" xmlns:xlink="http://www.w3.org/1999/xlink" xml:space="preserve" overflow="hidden"><g transform="translate(-445 -474)"><path d="M482 514.08C482.538 513.521 482.84 512.776 482.84 512 482.843 511.212 482.53 510.455 481.97 509.9L472.49 500.41C471.93 499.85 471.172 499.533 470.38 499.53 469.592 499.536 468.837 499.852 468.28 500.41L467.23 501.47 480.91 515.12Z" stroke="#333333" fill="#333333"/><path d="M495.75 538.36C495.177 538.943 494.24 538.95 493.657 538.377 493.651 538.371 493.646 538.366 493.64 538.36L476.64 521.36C476.055 520.774 476.055 519.826 476.64 519.24L478.76 517.18 465.13 503.56C464.25 504.44 463.39 505.3 462.83 505.83 461.458 507.112 460.638 508.875 460.54 510.75 460.416 513.808 460.962 516.855 462.14 519.68 463.268 522.211 464.652 524.62 466.27 526.87 471.896 535.311 479.012 542.658 487.27 548.55 488.649 549.57 490.099 550.489 491.61 551.3 495.025 553.095 498.766 554.183 502.61 554.5 505.24 554.691 507.814 553.68 509.61 551.75L511.49 549.87 497.81 536.24Z" stroke="#333333" fill="#333333"/><path d="M514.63 542.51 505.15 533C503.981 531.843 502.099 531.843 500.93 533L499.93 534.08 513.57 547.78 514.63 546.78C515.787 545.611 515.787 543.729 514.63 542.56Z" stroke="#333333" fill="#333333"/><path d="M507.14 524 503.14 524C502.706 518.263 498.602 513.471 493 512.16L493 508.08C500.826 509.481 506.673 516.063 507.14 524Z" stroke="#333333" fill="#333333"/><path d="M516.7 522C516.7 522.67 516.7 523.34 516.61 524L512.61 524C512.679 523.336 512.712 522.668 512.71 522 512.693 511.123 503.877 502.311 493 502.3L493 498.3C506.085 498.311 516.689 508.915 516.7 522Z" stroke="#333333" fill="#333333"/><path d="M527 522C527 522.67 527 523.34 526.93 524L522.93 524C522.93 523.34 523.01 522.67 523.01 522 523.01 505.984 510.026 493 494.01 493 494.007 493 494.003 493 494 493 493.66 493 493.33 493 493 493L493 489 494 489C512.225 489 527 503.775 527 522Z" stroke="#333333" fill="#333333"/></g></svg>