<svg width="96" height="96" xmlns="http://www.w3.org/2000/svg" xmlns:xlink="http://www.w3.org/1999/xlink" xml:space="preserve" overflow="hidden"><g transform="translate(-491 -194)"><path d="M528 234.08C528.538 233.521 528.839 232.776 528.84 232 528.843 231.212 528.53 230.455 527.97 229.9L518.49 220.41C517.93 219.85 517.172 219.533 516.38 219.53 515.592 219.536 514.837 219.852 514.28 220.41L513.23 221.47 526.91 235.12Z" stroke="#2196F3" stroke-width="0.541627" fill="#2196F3"/><path d="M541.75 258.36C541.177 258.943 540.24 258.95 539.657 258.377 539.651 258.371 539.646 258.366 539.64 258.36L522.64 241.36C522.055 240.774 522.055 239.826 522.64 239.24L524.76 237.18 511.13 223.56C510.25 224.44 509.39 225.3 508.83 225.83 507.458 227.112 506.638 228.875 506.54 230.75 506.416 233.808 506.962 236.855 508.14 239.68 509.268 242.211 510.652 244.62 512.27 246.87 517.896 255.311 525.012 262.658 533.27 268.55 534.649 269.57 536.099 270.489 537.61 271.3 541.025 273.095 544.766 274.183 548.61 274.5 551.24 274.691 553.814 273.68 555.61 271.75L557.49 269.87 543.81 256.24Z" stroke="#2196F3" stroke-width="0.541627" fill="#2196F3"/><path d="M560.63 262.51 551.15 253C549.981 251.843 548.099 251.843 546.93 253L545.93 254.08 559.57 267.78 560.63 266.78C561.787 265.611 561.787 263.729 560.63 262.56Z" stroke="#2196F3" stroke-width="0.541627" fill="#2196F3"/><path d="M553.14 244 549.14 244C548.706 238.263 544.602 233.471 539 232.16L539 228.08C546.826 229.481 552.673 236.063 553.14 244Z" stroke="#2196F3" stroke-width="0.541627" fill="#2196F3"/><path d="M562.7 242C562.7 242.67 562.7 243.34 562.61 244L558.61 244C558.679 243.336 558.712 242.668 558.71 242 558.693 231.123 549.877 222.311 539 222.3L539 218.3C552.085 218.311 562.689 228.915 562.7 242Z" stroke="#2196F3" stroke-width="0.541627" fill="#2196F3"/><path d="M573 242C573 242.67 573 243.34 572.93 244L568.93 244C568.93 243.34 569.01 242.67 569.01 242 569.01 225.984 556.026 213 540.01 213 540.007 213 540.003 213 540 213 539.66 213 539.33 213 539 213L539 209 540 209C558.225 209 573 223.775 573 242Z" stroke="#2196F3" stroke-width="0.541627" fill="#2196F3"/></g></svg>