<svg width="96" height="96" xmlns="http://www.w3.org/2000/svg" xmlns:xlink="http://www.w3.org/1999/xlink" xml:space="preserve" overflow="hidden"><g transform="translate(-509 -296)"><path d="M559 326 555 326C552.8 326 551 324.2 551 322L551 314C551 311.8 552.8 310 555 310L559 310C561.2 310 563 311.8 563 314L563 322C563 324.2 561.2 326 559 326Z" stroke="#2196F3" stroke-width="0.541627" fill="#2196F3"/><path d="M589 346 565 346 565 342 589 342 589 346ZM589 358 565 358 565 354 589 354 589 358ZM589 370 565 370 565 366 589 366 589 370ZM557 370 525 370 525 362C525 360.8 525.6 359.6 526.6 358.8 528.8 357.2 531.6 355.8 534.4 355 536.6 354.4 538.8 354 541 354 543.4 354 545.6 354.4 547.6 355 550.4 355.8 553.2 357 555.4 358.8 556.4 359.6 557 360.8 557 362L557 370ZM541 336C545.4 336 549 339.6 549 344 549 348.4 545.4 352 541 352 536.6 352 533 348.4 533 344 533 339.6 536.6 336 541 336ZM593 322 567 322C567 326.4 563.4 330 559 330L555 330C550.6 330 547 326.4 547 322L521 322C518.8 322 517 323.8 517 326L517 374C517 376.2 518.8 378 521 378L593 378C595.2 378 597 376.2 597 374L597 326C597 323.8 595.2 322 593 322Z" stroke="#2196F3" stroke-width="0.541627" fill="#2196F3"/></g></svg>